<svg width="12" height="14" viewBox="0 0 12 14" fill="none" xmlns="http://www.w3.org/2000/svg">
<path d="M10.099 1.05579C9.46156 0.316817 8.30919 0 6.83496 0H2.55634C2.25502 1.13472e-05 1.99842 0.222835 1.9512 0.525501L0.169662 12.0167C0.134251 12.2433 0.306777 12.4485 0.532603 12.4485H3.17407L3.83746 8.16914L3.81687 8.30314C3.86413 8.00065 4.11851 7.77755 4.41973 7.77755H5.67495C8.14082 7.77755 10.0716 6.75893 10.6357 3.81228C10.6524 3.72513 10.6669 3.64031 10.6794 3.55744C10.6083 3.5191 10.6083 3.5191 10.6794 3.55744C10.8474 2.46833 10.6783 1.72698 10.099 1.05579Z" fill="#27346A"/>
<path d="M4.84818 3.1651C4.9204 3.13013 4.99938 3.11201 5.07936 3.11206H8.43372C8.83093 3.11206 9.20142 3.13835 9.53997 3.19377C9.63471 3.20913 9.72896 3.22747 9.82258 3.24876C9.95527 3.27854 10.0864 3.31499 10.2156 3.35797C10.382 3.4145 10.537 3.48034 10.6795 3.55744C10.8474 2.46791 10.6783 1.72698 10.099 1.05579C9.46119 0.316817 8.30919 0 6.83496 0H2.55598C2.25471 0 1.99841 0.223061 1.9512 0.525501L0.169662 12.0163C0.134251 12.2432 0.306778 12.4481 0.532237 12.4481H3.17407L4.55039 3.57177C4.57786 3.39466 4.68921 3.24261 4.84818 3.1651Z" fill="#27346A"/>
<path d="M10.6356 3.81221C10.0716 6.75844 8.14081 7.77748 5.67489 7.77748H4.41931C4.11808 7.77748 3.86366 8.00059 3.81686 8.30307L2.99156 13.6239C2.96073 13.8222 3.11152 14.0019 3.3088 14.0019H5.53549C5.799 14.0019 6.02333 13.8069 6.06451 13.5422L6.08619 13.4268L6.50586 10.7218L6.5329 10.5723C6.57408 10.3076 6.79838 10.1127 7.06187 10.1126H7.39512C9.55213 10.1126 11.2411 9.22138 11.7347 6.64384C11.9407 5.56669 11.8341 4.66737 11.2891 4.03569C11.1238 3.84437 10.9185 3.68635 10.6794 3.55737C10.6664 3.64066 10.6524 3.72506 10.6356 3.81221Z" fill="#2790C3"/>
<path d="M10.0891 3.31802C10.0011 3.2919 9.91235 3.26878 9.82289 3.24869C9.72922 3.22774 9.63498 3.20953 9.54029 3.19406C9.20137 3.13828 8.83115 3.11194 8.43358 3.11194H5.07963C4.99959 3.11176 4.92055 3.13003 4.84845 3.1654C4.68928 3.24268 4.57784 3.39484 4.55062 3.57207L3.83773 8.16906L3.81714 8.30307C3.86403 8.00058 4.11841 7.77747 4.41968 7.77747H5.67526C8.14114 7.77747 10.0719 6.75885 10.6359 3.8122C10.6527 3.72506 10.6668 3.6406 10.6798 3.55736C10.5369 3.48068 10.3823 3.41443 10.2158 3.35827C10.1738 3.3441 10.1316 3.33068 10.0891 3.31802" fill="#1F264F"/>
</svg>
