<svg width="150" height="46" viewBox="0 0 150 46" fill="none" xmlns="http://www.w3.org/2000/svg">
<path d="M53 32.7068H61.8893C66.5626 32.7068 69.0516 30.2802 69.0516 26.9841C69.0516 23.9206 66.8471 22.0703 64.48 21.9591V21.7569C66.6439 21.2715 68.2389 19.7448 68.2389 17.3081C68.2389 14.2041 65.9226 12 61.3306 12H53V32.7068ZM57.399 29.1276V23.6273H61.0868C63.1999 23.6273 64.5104 24.8406 64.5104 26.5493C64.5104 28.1064 63.4437 29.1276 60.9852 29.1276H57.399ZM57.399 20.6649V15.5388H60.7413C62.6919 15.5388 63.7993 16.5397 63.7993 18.0361C63.7993 19.674 62.4583 20.6649 60.6601 20.6649H57.399Z" fill="white" fill-opacity="0.65"/>
<path d="M71.3046 32.7068H75.6324V23.9206C75.6324 22.0096 77.0344 20.6952 78.9443 20.6952C79.5437 20.6952 80.3666 20.7963 80.773 20.9278V17.1059C80.3869 17.0149 79.8485 16.9543 79.4116 16.9543C77.6642 16.9543 76.2318 17.9653 75.6629 19.8864H75.5003V17.1767H71.3046V32.7068Z" fill="white" fill-opacity="0.65"/>
<path d="M86.4851 33C88.7913 33 90.2847 31.999 91.0466 30.5532H91.1686V32.7068H95.2729V22.2321C95.2729 18.5315 92.1235 16.9745 88.6491 16.9745C84.9105 16.9745 82.4519 18.754 81.8525 21.585L85.8553 21.9085C86.1499 20.8772 87.0744 20.1189 88.6287 20.1189C90.1018 20.1189 90.945 20.857 90.945 22.131V22.1916C90.945 23.1926 89.8783 23.324 87.1658 23.5869C84.0774 23.87 81.3039 24.9013 81.3039 28.3693C81.3039 31.4429 83.5085 33 86.4851 33ZM87.7246 30.0274C86.3937 30.0274 85.4387 29.4107 85.4387 28.2277C85.4387 27.0144 86.4445 26.4179 87.9684 26.2056C88.9132 26.0741 90.4574 25.8517 90.9755 25.5079V27.156C90.9755 28.7838 89.6243 30.0274 87.7246 30.0274Z" fill="white" fill-opacity="0.65"/>
<path d="M102.43 23.7285C102.44 21.7265 103.639 20.5537 105.387 20.5537C107.124 20.5537 108.17 21.6861 108.16 23.5869V32.7068H112.488V22.8185C112.488 19.1988 110.354 16.9745 107.103 16.9745C104.787 16.9745 103.111 18.1069 102.41 19.9167H102.227V17.1767H98.1024V32.7068H102.43V23.7285Z" fill="white" fill-opacity="0.65"/>
<path d="M121.121 32.9596C123.64 32.9596 124.951 31.5137 125.55 30.2195H125.733V32.7068H130V12H125.682V19.7853H125.55C124.971 18.5214 123.722 16.9745 121.111 16.9745C117.687 16.9745 114.792 19.6235 114.792 24.962C114.792 30.1589 117.565 32.9596 121.121 32.9596ZM122.492 29.532C120.369 29.532 119.211 27.6514 119.211 24.9417C119.211 22.2523 120.349 20.402 122.492 20.402C124.595 20.402 125.774 22.1714 125.774 24.9417C125.774 27.7121 124.575 29.532 122.492 29.532Z" fill="white" fill-opacity="0.65"/>
<path fill-rule="evenodd" clip-rule="evenodd" d="M14.4676 2.91309H37.185C40.9489 2.91309 44.0002 6.28555 44.0002 10.4457V35.5544C44.0002 39.7145 40.9489 43.087 37.185 43.087H14.4676C10.7036 43.087 7.65234 39.7145 7.65234 35.5544L7.65234 10.4457C7.65234 6.28555 10.7036 2.91309 14.4676 2.91309Z" fill="#AFD0FF" fill-opacity="0.5"/>
<path fill-rule="evenodd" clip-rule="evenodd" d="M8.13046 2.91309H32.0435C36.0055 2.91309 39.2174 6.28555 39.2174 10.4457V35.5544C39.2174 39.7145 36.0055 43.087 32.0435 43.087H8.13046C4.16841 43.087 0.956542 39.7145 0.956543 35.5544L0.956543 10.4457C0.956543 6.28555 4.16841 2.91309 8.13046 2.91309Z" fill="#AFD0FF"/>
<g opacity="0.7">
<path opacity="0.3" fill-rule="evenodd" clip-rule="evenodd" d="M15.2902 19.3563H14.3097C14.2592 19.3563 14.1842 19.4266 14.1813 19.4731L13.459 31.1478L26.9549 31.1452L26.2254 19.4731C26.2226 19.4284 26.1458 19.3563 26.097 19.3563H25.1165V21.3216C25.1165 21.8643 24.6765 22.3042 24.1338 22.3042C23.5912 22.3042 23.1512 21.8643 23.1512 21.3216V19.3563H17.2555V21.3216C17.2555 21.8643 16.8156 22.3042 16.2729 22.3042C15.7302 22.3042 15.2902 21.8643 15.2902 21.3216V19.3563Z" fill="white"/>
<path fill-rule="evenodd" clip-rule="evenodd" d="M20.2035 12.4783C22.9156 12.4783 25.1166 14.6796 25.1166 17.3891L26.0972 17.3914C27.1837 17.3914 28.1194 18.2704 28.187 19.3508L28.9247 31.1539C28.9923 32.2361 28.17 33.1133 27.0867 33.1133H13.3203C12.2376 33.1133 11.4149 32.2344 11.4824 31.1539L12.2201 19.3508C12.2877 18.2686 13.2215 17.3914 14.3099 17.3914H15.2904C15.2904 14.6781 17.4933 12.4783 20.2035 12.4783ZM23.1514 17.3915C23.1514 15.765 21.8302 14.4436 20.2035 14.4436C18.5781 14.4436 17.2557 15.7642 17.2557 17.3892L23.1514 17.3915ZM15.2904 19.3566H14.3099C14.2593 19.3566 14.1844 19.4269 14.1815 19.4733L13.4592 31.148L26.9551 31.1455L26.2256 19.4733C26.2228 19.4286 26.1459 19.3566 26.0972 19.3566H25.1166V21.3218C25.1166 21.8645 24.6767 22.3044 24.134 22.3044C23.5913 22.3044 23.1514 21.8645 23.1514 21.3218V19.3566H17.2557V21.3218C17.2557 21.8645 16.8157 22.3044 16.273 22.3044C15.7304 22.3044 15.2904 21.8645 15.2904 21.3218V19.3566Z" fill="white"/>
</g>
</svg>
